# xmcd
#
# Track frame offsets:
#	150
#	9889
#	24738
#	44244
#	66848
#	83085
#	101809
#	127273
#	146722
#	166221
#	187162
#	204731
#	225385
#	244054
#	266201
#	285460
#	297641
#	313705
#
# Disc length: 4395 seconds
#
# Revision: 1
# Processed by: cddbd v1.4PL0 Copyright (c) Steve Scherf et al.
# Submitted via: audiograbber 1.81.01
#
DISCID=1a112912
DTITLE=Destiny's Child - Writings On The Wall
DYEAR=1900
DGENRE=
TTITLE0=Intro (The Writings On The Wall)
TTITLE1=So Good
TTITLE2=Bills, Bills, Bills
TTITLE3=Confessions
TTITLE4=Bug A Boo
TTITLE5=Temptation
TTITLE6=Now That She's Gone
TTITLE7=Where'd You Go
TTITLE8=Hey Ladies
TTITLE9=If You Leave
TTITLE10=Jumpin, Jumpin
TTITLE11=Say My Name
TTITLE12=She Can't Love You
TTITLE13=Stay
TTITLE14=Sweet Sixteen
TTITLE15=Outro
TTITLE16=Bonus Track 1
TTITLE17=Bonus Track 2
EXTD=
EXTT0=
EXTT1=
EXTT2=
EXTT3=
EXTT4=
EXTT5=
EXTT6=
EXTT7=
EXTT8=
EXTT9=
EXTT10=
EXTT11=
EXTT12=
EXTT13=
EXTT14=
EXTT15=
EXTT16=
EXTT17=
PLAYORDER=
